<?xml version="1.0" encoding="UTF-8"?><svg id="uuid-7f2497e5-6b41-46ef-98a6-8ae7cd0e43cb" xmlns="http://www.w3.org/2000/svg" viewBox="0 0 12.52 11.34"><g id="uuid-bda4d90f-5644-48e2-b564-50ac3a54da07"><path d="m6.26,1c.15,0,.53.04.76.44l4.38,7.59c.23.39.08.74,0,.87s-.3.44-.76.44H1.87c-.46,0-.68-.31-.76-.44s-.23-.48,0-.87L5.49,1.44c.23-.39.6-.44.76-.44m0-1c-.63,0-1.26.31-1.62.94L.25,8.53c-.72,1.25.18,2.81,1.62,2.81h8.77c1.44,0,2.34-1.56,1.62-2.81L7.88.94c-.36-.62-.99-.94-1.62-.94h-.01Z"/></g></svg>